<?xml version="1.0" encoding="UTF-8" standalone="no"?><svg xmlns="http://www.w3.org/2000/svg" xmlns:xlink="http://www.w3.org/1999/xlink" contentStyleType="text/css" height="617px" preserveAspectRatio="none" style="width:1173px;height:617px;background:#FFFFFF;" version="1.1" viewBox="0 0 1173 617" width="1173px" zoomAndPan="magnify"><defs/><g><rect fill="none" height="27.6094" id="_title" style="stroke:none;stroke-width:1.0;" width="243" x="458" y="5"/><text fill="#000000" font-family="sans-serif" font-size="14" font-weight="bold" lengthAdjust="spacing" textLength="233" x="463" y="24.5332">EstimaDev - Diagrama de Classes</text><!--MD5=[35a64b983c79880384a2fd9b61f0c24b]
class Usuario--><g id="elem_Usuario"><rect codeLine="10" fill="#F1F1F1" height="118.4375" id="Usuario" rx="2.5" ry="2.5" style="stroke:#181818;stroke-width:0.5;" width="105" x="86" y="63.6094"/><ellipse cx="112.25" cy="79.6094" fill="#ADD1B2" rx="11" ry="11" style="stroke:#181818;stroke-width:1.0;"/><path d="M115.0156,75.4844 Q115.1719,75.2656 115.3594,75.1563 Q115.5469,75.0469 115.7656,75.0469 Q116.1406,75.0469 116.375,75.3125 Q116.6094,75.5625 116.6094,76.1719 L116.6094,77.625 Q116.6094,78.2344 116.375,78.5 Q116.1406,78.7656 115.7656,78.7656 Q115.4219,78.7656 115.2188,78.5625 Q115.0156,78.375 114.9063,77.8594 Q114.8594,77.5 114.6719,77.3125 Q114.3438,76.9375 113.7344,76.7188 Q113.125,76.5 112.5,76.5 Q111.7344,76.5 111.0938,76.8281 Q110.4688,77.1563 109.9688,77.9063 Q109.4844,78.6563 109.4844,79.6875 L109.4844,80.7813 Q109.4844,82.0156 110.375,82.8438 Q111.2656,83.6563 112.8594,83.6563 Q113.7969,83.6563 114.4531,83.4063 Q114.8438,83.25 115.2656,82.8125 Q115.5313,82.5469 115.6719,82.4688 Q115.8281,82.3906 116.0313,82.3906 Q116.3594,82.3906 116.6094,82.6563 Q116.875,82.9063 116.875,83.25 Q116.875,83.5938 116.5313,84 Q116.0313,84.5781 115.2344,84.9063 Q114.1563,85.3594 112.8594,85.3594 Q111.3438,85.3594 110.1406,84.7344 Q109.1563,84.2344 108.4688,83.1719 Q107.7813,82.0938 107.7813,80.8125 L107.7813,79.6563 Q107.7813,78.3281 108.3906,77.1875 Q109.0156,76.0313 110.1094,75.4219 Q111.2031,74.7969 112.4375,74.7969 Q113.1719,74.7969 113.8125,74.9688 Q114.4688,75.125 115.0156,75.4844 Z " fill="#000000"/><text fill="#000000" font-family="sans-serif" font-size="14" lengthAdjust="spacing" textLength="48" x="128.75" y="85.3379">Usuario</text><line style="stroke:#181818;stroke-width:0.5;" x1="87" x2="190" y1="95.6094" y2="95.6094"/><ellipse cx="97" cy="109.9141" fill="none" rx="3" ry="3" style="stroke:#038048;stroke-width:1.0;"/><text fill="#000000" font-family="sans-serif" font-size="14" lengthAdjust="spacing" textLength="34" x="106" y="114.1426">Id: int</text><text fill="#000000" font-family="sans-serif" font-size="14" lengthAdjust="spacing" textLength="79" x="106" y="131.752">Nome: string</text><text fill="#000000" font-family="sans-serif" font-size="14" lengthAdjust="spacing" textLength="77" x="106" y="149.3613">Email: string</text><text fill="#000000" font-family="sans-serif" font-size="14" lengthAdjust="spacing" textLength="12" x="106" y="166.9707">...</text><line style="stroke:#181818;stroke-width:0.5;" x1="87" x2="190" y1="174.0469" y2="174.0469"/></g><!--MD5=[bc6b894e3d18da8d9f25806dc8286ece]
class Cargo--><g id="elem_Cargo"><rect codeLine="17" fill="#F1F1F1" height="100.8281" id="Cargo" rx="2.5" ry="2.5" style="stroke:#181818;stroke-width:0.5;" width="105" x="226" y="72.1094"/><ellipse cx="256.3" cy="88.1094" fill="#ADD1B2" rx="11" ry="11" style="stroke:#181818;stroke-width:1.0;"/><path d="M259.0656,83.9844 Q259.2219,83.7656 259.4094,83.6563 Q259.5969,83.5469 259.8156,83.5469 Q260.1906,83.5469 260.425,83.8125 Q260.6594,84.0625 260.6594,84.6719 L260.6594,86.125 Q260.6594,86.7344 260.425,87 Q260.1906,87.2656 259.8156,87.2656 Q259.4719,87.2656 259.2688,87.0625 Q259.0656,86.875 258.9563,86.3594 Q258.9094,86 258.7219,85.8125 Q258.3938,85.4375 257.7844,85.2188 Q257.175,85 256.55,85 Q255.7844,85 255.1438,85.3281 Q254.5188,85.6563 254.0188,86.4063 Q253.5344,87.1563 253.5344,88.1875 L253.5344,89.2813 Q253.5344,90.5156 254.425,91.3438 Q255.3156,92.1563 256.9094,92.1563 Q257.8469,92.1563 258.5031,91.9063 Q258.8938,91.75 259.3156,91.3125 Q259.5813,91.0469 259.7219,90.9688 Q259.8781,90.8906 260.0813,90.8906 Q260.4094,90.8906 260.6594,91.1563 Q260.925,91.4063 260.925,91.75 Q260.925,92.0938 260.5813,92.5 Q260.0813,93.0781 259.2844,93.4063 Q258.2063,93.8594 256.9094,93.8594 Q255.3938,93.8594 254.1906,93.2344 Q253.2063,92.7344 252.5188,91.6719 Q251.8313,90.5938 251.8313,89.3125 L251.8313,88.1563 Q251.8313,86.8281 252.4406,85.6875 Q253.0656,84.5313 254.1594,83.9219 Q255.2531,83.2969 256.4875,83.2969 Q257.2219,83.2969 257.8625,83.4688 Q258.5188,83.625 259.0656,83.9844 Z " fill="#000000"/><text fill="#000000" font-family="sans-serif" font-size="14" lengthAdjust="spacing" textLength="39" x="273.7" y="93.8379">Cargo</text><line style="stroke:#181818;stroke-width:0.5;" x1="227" x2="330" y1="104.1094" y2="104.1094"/><ellipse cx="237" cy="118.4141" fill="none" rx="3" ry="3" style="stroke:#038048;stroke-width:1.0;"/><text fill="#000000" font-family="sans-serif" font-size="14" lengthAdjust="spacing" textLength="34" x="246" y="122.6426">Id: int</text><text fill="#000000" font-family="sans-serif" font-size="14" lengthAdjust="spacing" textLength="79" x="246" y="140.252">Nome: string</text><text fill="#000000" font-family="sans-serif" font-size="14" lengthAdjust="spacing" textLength="12" x="246" y="157.8613">...</text><line style="stroke:#181818;stroke-width:0.5;" x1="227" x2="330" y1="164.9375" y2="164.9375"/></g><!--MD5=[2adfe9359dbcab1fa097a100dcefbabe]
class Projeto--><g id="elem_Projeto"><rect codeLine="23" fill="#F1F1F1" height="100.8281" id="Projeto" rx="2.5" ry="2.5" style="stroke:#181818;stroke-width:0.5;" width="105" x="366" y="72.1094"/><ellipse cx="393.6" cy="88.1094" fill="#ADD1B2" rx="11" ry="11" style="stroke:#181818;stroke-width:1.0;"/><path d="M396.3656,83.9844 Q396.5219,83.7656 396.7094,83.6563 Q396.8969,83.5469 397.1156,83.5469 Q397.4906,83.5469 397.725,83.8125 Q397.9594,84.0625 397.9594,84.6719 L397.9594,86.125 Q397.9594,86.7344 397.725,87 Q397.4906,87.2656 397.1156,87.2656 Q396.7719,87.2656 396.5688,87.0625 Q396.3656,86.875 396.2563,86.3594 Q396.2094,86 396.0219,85.8125 Q395.6938,85.4375 395.0844,85.2188 Q394.475,85 393.85,85 Q393.0844,85 392.4438,85.3281 Q391.8188,85.6563 391.3188,86.4063 Q390.8344,87.1563 390.8344,88.1875 L390.8344,89.2813 Q390.8344,90.5156 391.725,91.3438 Q392.6156,92.1563 394.2094,92.1563 Q395.1469,92.1563 395.8031,91.9063 Q396.1938,91.75 396.6156,91.3125 Q396.8813,91.0469 397.0219,90.9688 Q397.1781,90.8906 397.3813,90.8906 Q397.7094,90.8906 397.9594,91.1563 Q398.225,91.4063 398.225,91.75 Q398.225,92.0938 397.8813,92.5 Q397.3813,93.0781 396.5844,93.4063 Q395.5063,93.8594 394.2094,93.8594 Q392.6938,93.8594 391.4906,93.2344 Q390.5063,92.7344 389.8188,91.6719 Q389.1313,90.5938 389.1313,89.3125 L389.1313,88.1563 Q389.1313,86.8281 389.7406,85.6875 Q390.3656,84.5313 391.4594,83.9219 Q392.5531,83.2969 393.7875,83.2969 Q394.5219,83.2969 395.1625,83.4688 Q395.8188,83.625 396.3656,83.9844 Z " fill="#000000"/><text fill="#000000" font-family="sans-serif" font-size="14" lengthAdjust="spacing" textLength="45" x="410.4" y="93.8379">Projeto</text><line style="stroke:#181818;stroke-width:0.5;" x1="367" x2="470" y1="104.1094" y2="104.1094"/><ellipse cx="377" cy="118.4141" fill="none" rx="3" ry="3" style="stroke:#038048;stroke-width:1.0;"/><text fill="#000000" font-family="sans-serif" font-size="14" lengthAdjust="spacing" textLength="34" x="386" y="122.6426">Id: int</text><text fill="#000000" font-family="sans-serif" font-size="14" lengthAdjust="spacing" textLength="79" x="386" y="140.252">Nome: string</text><text fill="#000000" font-family="sans-serif" font-size="14" lengthAdjust="spacing" textLength="12" x="386" y="157.8613">...</text><line style="stroke:#181818;stroke-width:0.5;" x1="367" x2="470" y1="164.9375" y2="164.9375"/></g><!--MD5=[27c2d4bbe9f7b9d3b0ea2797cc54308a]
class Tarefa--><g id="elem_Tarefa"><rect codeLine="29" fill="#F1F1F1" height="100.8281" id="Tarefa" rx="2.5" ry="2.5" style="stroke:#181818;stroke-width:0.5;" width="104" x="506.5" y="72.1094"/><ellipse cx="535" cy="88.1094" fill="#ADD1B2" rx="11" ry="11" style="stroke:#181818;stroke-width:1.0;"/><path d="M537.7656,83.9844 Q537.9219,83.7656 538.1094,83.6563 Q538.2969,83.5469 538.5156,83.5469 Q538.8906,83.5469 539.125,83.8125 Q539.3594,84.0625 539.3594,84.6719 L539.3594,86.125 Q539.3594,86.7344 539.125,87 Q538.8906,87.2656 538.5156,87.2656 Q538.1719,87.2656 537.9688,87.0625 Q537.7656,86.875 537.6563,86.3594 Q537.6094,86 537.4219,85.8125 Q537.0938,85.4375 536.4844,85.2188 Q535.875,85 535.25,85 Q534.4844,85 533.8438,85.3281 Q533.2188,85.6563 532.7188,86.4063 Q532.2344,87.1563 532.2344,88.1875 L532.2344,89.2813 Q532.2344,90.5156 533.125,91.3438 Q534.0156,92.1563 535.6094,92.1563 Q536.5469,92.1563 537.2031,91.9063 Q537.5938,91.75 538.0156,91.3125 Q538.2813,91.0469 538.4219,90.9688 Q538.5781,90.8906 538.7813,90.8906 Q539.1094,90.8906 539.3594,91.1563 Q539.625,91.4063 539.625,91.75 Q539.625,92.0938 539.2813,92.5 Q538.7813,93.0781 537.9844,93.4063 Q536.9063,93.8594 535.6094,93.8594 Q534.0938,93.8594 532.8906,93.2344 Q531.9063,92.7344 531.2188,91.6719 Q530.5313,90.5938 530.5313,89.3125 L530.5313,88.1563 Q530.5313,86.8281 531.1406,85.6875 Q531.7656,84.5313 532.8594,83.9219 Q533.9531,83.2969 535.1875,83.2969 Q535.9219,83.2969 536.5625,83.4688 Q537.2188,83.625 537.7656,83.9844 Z " fill="#000000"/><text fill="#000000" font-family="sans-serif" font-size="14" lengthAdjust="spacing" textLength="42" x="552" y="93.8379">Tarefa</text><line style="stroke:#181818;stroke-width:0.5;" x1="507.5" x2="609.5" y1="104.1094" y2="104.1094"/><ellipse cx="517.5" cy="118.4141" fill="none" rx="3" ry="3" style="stroke:#038048;stroke-width:1.0;"/><text fill="#000000" font-family="sans-serif" font-size="14" lengthAdjust="spacing" textLength="34" x="526.5" y="122.6426">Id: int</text><text fill="#000000" font-family="sans-serif" font-size="14" lengthAdjust="spacing" textLength="78" x="526.5" y="140.252">Titulo: string</text><text fill="#000000" font-family="sans-serif" font-size="14" lengthAdjust="spacing" textLength="12" x="526.5" y="157.8613">...</text><line style="stroke:#181818;stroke-width:0.5;" x1="507.5" x2="609.5" y1="164.9375" y2="164.9375"/></g><!--MD5=[e3d83ec5fd90ea9f3f2bfe265cb53458]
class Status--><g id="elem_Status"><rect codeLine="35" fill="#F1F1F1" height="100.8281" id="Status" rx="2.5" ry="2.5" style="stroke:#181818;stroke-width:0.5;" width="72" x="102.5" y="295.1094"/><ellipse cx="117.5" cy="311.1094" fill="#EB937F" rx="11" ry="11" style="stroke:#181818;stroke-width:1.0;"/><path d="M116.3594,311.9063 L116.3594,314.4063 L120.6875,314.4063 L120.6875,313.4844 Q120.6875,312.875 120.9219,312.6094 Q121.1719,312.3438 121.5469,312.3438 Q121.9219,312.3438 122.1563,312.6094 Q122.3906,312.875 122.3906,313.4844 L122.3906,316.1094 L114.3906,316.1094 Q113.7656,316.1094 113.5,315.875 Q113.25,315.6406 113.25,315.25 Q113.25,314.875 113.5156,314.6406 Q113.7813,314.4063 114.3906,314.4063 L114.6563,314.4063 L114.6563,307.75 L114.3906,307.75 Q113.7656,307.75 113.5,307.5156 Q113.25,307.2813 113.25,306.8906 Q113.25,306.5156 113.5,306.2813 Q113.7656,306.0469 114.3906,306.0469 L122.0156,306.0469 L122.0156,308.6406 Q122.0156,309.25 121.7813,309.5156 Q121.5625,309.7656 121.1719,309.7656 Q120.7969,309.7656 120.5625,309.5156 Q120.3281,309.25 120.3281,308.6406 L120.3281,307.75 L116.3594,307.75 L116.3594,310.2031 L117.8438,310.2031 Q117.8438,309.5469 117.9688,309.3594 Q118.2344,308.9531 118.7031,308.9531 Q119.0781,308.9531 119.3125,309.2188 Q119.5469,309.4688 119.5469,310.0781 L119.5469,312.0469 Q119.5469,312.5938 119.4219,312.7813 Q119.1563,313.1719 118.7031,313.1719 Q118.2344,313.1719 117.9688,312.7656 Q117.8438,312.5781 117.8438,311.9063 L116.3594,311.9063 Z " fill="#000000"/><text fill="#000000" font-family="sans-serif" font-size="14" lengthAdjust="spacing" textLength="40" x="131.5" y="316.8379">Status</text><line style="stroke:#181818;stroke-width:0.5;" x1="103.5" x2="173.5" y1="327.1094" y2="327.1094"/><text fill="#000000" font-family="sans-serif" font-size="14" lengthAdjust="spacing" textLength="31" x="108.5" y="345.6426">Ativo</text><text fill="#000000" font-family="sans-serif" font-size="14" lengthAdjust="spacing" textLength="41" x="108.5" y="363.252">Inativo</text><text fill="#000000" font-family="sans-serif" font-size="14" lengthAdjust="spacing" textLength="12" x="108.5" y="380.8613">...</text><line style="stroke:#181818;stroke-width:0.5;" x1="103.5" x2="173.5" y1="387.9375" y2="387.9375"/></g><!--MD5=[869ea5a304a471418f1b9dfa633314a9]
class Historico--><g id="elem_Historico"><rect codeLine="41" fill="#F1F1F1" height="118.4375" id="Historico" rx="2.5" ry="2.5" style="stroke:#181818;stroke-width:0.5;" width="132" x="209.5" y="286.6094"/><ellipse cx="245.2" cy="302.6094" fill="#ADD1B2" rx="11" ry="11" style="stroke:#181818;stroke-width:1.0;"/><path d="M247.9656,298.4844 Q248.1219,298.2656 248.3094,298.1563 Q248.4969,298.0469 248.7156,298.0469 Q249.0906,298.0469 249.325,298.3125 Q249.5594,298.5625 249.5594,299.1719 L249.5594,300.625 Q249.5594,301.2344 249.325,301.5 Q249.0906,301.7656 248.7156,301.7656 Q248.3719,301.7656 248.1688,301.5625 Q247.9656,301.375 247.8563,300.8594 Q247.8094,300.5 247.6219,300.3125 Q247.2938,299.9375 246.6844,299.7188 Q246.075,299.5 245.45,299.5 Q244.6844,299.5 244.0438,299.8281 Q243.4188,300.1563 242.9188,300.9063 Q242.4344,301.6563 242.4344,302.6875 L242.4344,303.7813 Q242.4344,305.0156 243.325,305.8438 Q244.2156,306.6563 245.8094,306.6563 Q246.7469,306.6563 247.4031,306.4063 Q247.7938,306.25 248.2156,305.8125 Q248.4813,305.5469 248.6219,305.4688 Q248.7781,305.3906 248.9813,305.3906 Q249.3094,305.3906 249.5594,305.6563 Q249.825,305.9063 249.825,306.25 Q249.825,306.5938 249.4813,307 Q248.9813,307.5781 248.1844,307.9063 Q247.1063,308.3594 245.8094,308.3594 Q244.2938,308.3594 243.0906,307.7344 Q242.1063,307.2344 241.4188,306.1719 Q240.7313,305.0938 240.7313,303.8125 L240.7313,302.6563 Q240.7313,301.3281 241.3406,300.1875 Q241.9656,299.0313 243.0594,298.4219 Q244.1531,297.7969 245.3875,297.7969 Q246.1219,297.7969 246.7625,297.9688 Q247.4188,298.125 247.9656,298.4844 Z " fill="#000000"/><text fill="#000000" font-family="sans-serif" font-size="14" lengthAdjust="spacing" textLength="54" x="263.8" y="308.3379">Historico</text><line style="stroke:#181818;stroke-width:0.5;" x1="210.5" x2="340.5" y1="318.6094" y2="318.6094"/><ellipse cx="220.5" cy="332.9141" fill="none" rx="3" ry="3" style="stroke:#038048;stroke-width:1.0;"/><text fill="#000000" font-family="sans-serif" font-size="14" lengthAdjust="spacing" textLength="34" x="229.5" y="337.1426">Id: int</text><text fill="#000000" font-family="sans-serif" font-size="14" lengthAdjust="spacing" textLength="106" x="229.5" y="354.752">Descricao: string</text><text fill="#000000" font-family="sans-serif" font-size="14" lengthAdjust="spacing" textLength="99" x="229.5" y="372.3613">Data: DateTime</text><text fill="#000000" font-family="sans-serif" font-size="14" lengthAdjust="spacing" textLength="12" x="229.5" y="389.9707">...</text><line style="stroke:#181818;stroke-width:0.5;" x1="210.5" x2="340.5" y1="397.0469" y2="397.0469"/></g><!--MD5=[c6f0e2fc888278fd80920182d5ed24f4]
class UsuarioController--><g id="elem_UsuarioController"><rect codeLine="48" fill="#F1F1F1" height="136.0469" id="UsuarioController" rx="2.5" ry="2.5" style="stroke:#181818;stroke-width:0.5;" width="269" x="377" y="277.6094"/><ellipse cx="452.25" cy="293.6094" fill="#ADD1B2" rx="11" ry="11" style="stroke:#181818;stroke-width:1.0;"/><path d="M455.0156,289.4844 Q455.1719,289.2656 455.3594,289.1563 Q455.5469,289.0469 455.7656,289.0469 Q456.1406,289.0469 456.375,289.3125 Q456.6094,289.5625 456.6094,290.1719 L456.6094,291.625 Q456.6094,292.2344 456.375,292.5 Q456.1406,292.7656 455.7656,292.7656 Q455.4219,292.7656 455.2188,292.5625 Q455.0156,292.375 454.9063,291.8594 Q454.8594,291.5 454.6719,291.3125 Q454.3438,290.9375 453.7344,290.7188 Q453.125,290.5 452.5,290.5 Q451.7344,290.5 451.0938,290.8281 Q450.4688,291.1563 449.9688,291.9063 Q449.4844,292.6563 449.4844,293.6875 L449.4844,294.7813 Q449.4844,296.0156 450.375,296.8438 Q451.2656,297.6563 452.8594,297.6563 Q453.7969,297.6563 454.4531,297.4063 Q454.8438,297.25 455.2656,296.8125 Q455.5313,296.5469 455.6719,296.4688 Q455.8281,296.3906 456.0313,296.3906 Q456.3594,296.3906 456.6094,296.6563 Q456.875,296.9063 456.875,297.25 Q456.875,297.5938 456.5313,298 Q456.0313,298.5781 455.2344,298.9063 Q454.1563,299.3594 452.8594,299.3594 Q451.3438,299.3594 450.1406,298.7344 Q449.1563,298.2344 448.4688,297.1719 Q447.7813,296.0938 447.7813,294.8125 L447.7813,293.6563 Q447.7813,292.3281 448.3906,291.1875 Q449.0156,290.0313 450.1094,289.4219 Q451.2031,288.7969 452.4375,288.7969 Q453.1719,288.7969 453.8125,288.9688 Q454.4688,289.125 455.0156,289.4844 Z " fill="#000000"/><text fill="#000000" font-family="sans-serif" font-size="14" lengthAdjust="spacing" textLength="110" x="472.75" y="299.3379">UsuarioController</text><line style="stroke:#181818;stroke-width:0.5;" x1="378" x2="645" y1="309.6094" y2="309.6094"/><line style="stroke:#181818;stroke-width:0.5;" x1="378" x2="645" y1="317.6094" y2="317.6094"/><ellipse cx="388" cy="331.9141" fill="#84BE84" rx="3" ry="3" style="stroke:#038048;stroke-width:1.0;"/><text fill="#000000" font-family="sans-serif" font-size="14" lengthAdjust="spacing" textLength="236" x="397" y="336.1426">ListarTodos(): IEnumerable&lt;Usuario&gt;</text><ellipse cx="388" cy="349.5234" fill="#84BE84" rx="3" ry="3" style="stroke:#038048;stroke-width:1.0;"/><text fill="#000000" font-family="sans-serif" font-size="14" lengthAdjust="spacing" textLength="177" x="397" y="353.752">BuscarPorId(id: int): Usuario</text><ellipse cx="388" cy="367.1328" fill="#84BE84" rx="3" ry="3" style="stroke:#038048;stroke-width:1.0;"/><text fill="#000000" font-family="sans-serif" font-size="14" lengthAdjust="spacing" textLength="178" x="397" y="371.3613">Criar(usuario: Usuario): void</text><ellipse cx="388" cy="384.7422" fill="#84BE84" rx="3" ry="3" style="stroke:#038048;stroke-width:1.0;"/><text fill="#000000" font-family="sans-serif" font-size="14" lengthAdjust="spacing" textLength="243" x="397" y="388.9707">Atualizar(id: int, usuario: Usuario): void</text><ellipse cx="388" cy="402.3516" fill="#84BE84" rx="3" ry="3" style="stroke:#038048;stroke-width:1.0;"/><text fill="#000000" font-family="sans-serif" font-size="14" lengthAdjust="spacing" textLength="119" x="397" y="406.5801">Excluir(id: int): void</text></g><!--MD5=[757b45d8b8574707f930d6bdf0b55cbd]
class CargoController--><g id="elem_CargoController"><rect codeLine="56" fill="#F1F1F1" height="136.0469" id="CargoController" rx="2.5" ry="2.5" style="stroke:#181818;stroke-width:0.5;" width="253" x="681" y="277.6094"/><ellipse cx="752.75" cy="293.6094" fill="#ADD1B2" rx="11" ry="11" style="stroke:#181818;stroke-width:1.0;"/><path d="M755.5156,289.4844 Q755.6719,289.2656 755.8594,289.1563 Q756.0469,289.0469 756.2656,289.0469 Q756.6406,289.0469 756.875,289.3125 Q757.1094,289.5625 757.1094,290.1719 L757.1094,291.625 Q757.1094,292.2344 756.875,292.5 Q756.6406,292.7656 756.2656,292.7656 Q755.9219,292.7656 755.7188,292.5625 Q755.5156,292.375 755.4063,291.8594 Q755.3594,291.5 755.1719,291.3125 Q754.8438,290.9375 754.2344,290.7188 Q753.625,290.5 753,290.5 Q752.2344,290.5 751.5938,290.8281 Q750.9688,291.1563 750.4688,291.9063 Q749.9844,292.6563 749.9844,293.6875 L749.9844,294.7813 Q749.9844,296.0156 750.875,296.8438 Q751.7656,297.6563 753.3594,297.6563 Q754.2969,297.6563 754.9531,297.4063 Q755.3438,297.25 755.7656,296.8125 Q756.0313,296.5469 756.1719,296.4688 Q756.3281,296.3906 756.5313,296.3906 Q756.8594,296.3906 757.1094,296.6563 Q757.375,296.9063 757.375,297.25 Q757.375,297.5938 757.0313,298 Q756.5313,298.5781 755.7344,298.9063 Q754.6563,299.3594 753.3594,299.3594 Q751.8438,299.3594 750.6406,298.7344 Q749.6563,298.2344 748.9688,297.1719 Q748.2813,296.0938 748.2813,294.8125 L748.2813,293.6563 Q748.2813,292.3281 748.8906,291.1875 Q749.5156,290.0313 750.6094,289.4219 Q751.7031,288.7969 752.9375,288.7969 Q753.6719,288.7969 754.3125,288.9688 Q754.9688,289.125 755.5156,289.4844 Z " fill="#000000"/><text fill="#000000" font-family="sans-serif" font-size="14" lengthAdjust="spacing" textLength="101" x="773.25" y="299.3379">CargoController</text><line style="stroke:#181818;stroke-width:0.5;" x1="682" x2="933" y1="309.6094" y2="309.6094"/><line style="stroke:#181818;stroke-width:0.5;" x1="682" x2="933" y1="317.6094" y2="317.6094"/><ellipse cx="692" cy="331.9141" fill="#84BE84" rx="3" ry="3" style="stroke:#038048;stroke-width:1.0;"/><text fill="#000000" font-family="sans-serif" font-size="14" lengthAdjust="spacing" textLength="227" x="701" y="336.1426">ListarTodos(): IEnumerable&lt;Cargo&gt;</text><ellipse cx="692" cy="349.5234" fill="#84BE84" rx="3" ry="3" style="stroke:#038048;stroke-width:1.0;"/><text fill="#000000" font-family="sans-serif" font-size="14" lengthAdjust="spacing" textLength="168" x="701" y="353.752">BuscarPorId(id: int): Cargo</text><ellipse cx="692" cy="367.1328" fill="#84BE84" rx="3" ry="3" style="stroke:#038048;stroke-width:1.0;"/><text fill="#000000" font-family="sans-serif" font-size="14" lengthAdjust="spacing" textLength="158" x="701" y="371.3613">Criar(cargo: Cargo): void</text><ellipse cx="692" cy="384.7422" fill="#84BE84" rx="3" ry="3" style="stroke:#038048;stroke-width:1.0;"/><text fill="#000000" font-family="sans-serif" font-size="14" lengthAdjust="spacing" textLength="223" x="701" y="388.9707">Atualizar(id: int, cargo: Cargo): void</text><ellipse cx="692" cy="402.3516" fill="#84BE84" rx="3" ry="3" style="stroke:#038048;stroke-width:1.0;"/><text fill="#000000" font-family="sans-serif" font-size="14" lengthAdjust="spacing" textLength="119" x="701" y="406.5801">Excluir(id: int): void</text></g><!--MD5=[4f68556cad22f62e788c854867b880cb]
class ProjetoController--><g id="elem_ProjetoController"><rect codeLine="64" fill="#F1F1F1" height="136.0469" id="ProjetoController" rx="2.5" ry="2.5" style="stroke:#181818;stroke-width:0.5;" width="263" x="7" y="474.6094"/><ellipse cx="80.75" cy="490.6094" fill="#ADD1B2" rx="11" ry="11" style="stroke:#181818;stroke-width:1.0;"/><path d="M83.5156,486.4844 Q83.6719,486.2656 83.8594,486.1563 Q84.0469,486.0469 84.2656,486.0469 Q84.6406,486.0469 84.875,486.3125 Q85.1094,486.5625 85.1094,487.1719 L85.1094,488.625 Q85.1094,489.2344 84.875,489.5 Q84.6406,489.7656 84.2656,489.7656 Q83.9219,489.7656 83.7188,489.5625 Q83.5156,489.375 83.4063,488.8594 Q83.3594,488.5 83.1719,488.3125 Q82.8438,487.9375 82.2344,487.7188 Q81.625,487.5 81,487.5 Q80.2344,487.5 79.5938,487.8281 Q78.9688,488.1563 78.4688,488.9063 Q77.9844,489.6563 77.9844,490.6875 L77.9844,491.7813 Q77.9844,493.0156 78.875,493.8438 Q79.7656,494.6563 81.3594,494.6563 Q82.2969,494.6563 82.9531,494.4063 Q83.3438,494.25 83.7656,493.8125 Q84.0313,493.5469 84.1719,493.4688 Q84.3281,493.3906 84.5313,493.3906 Q84.8594,493.3906 85.1094,493.6563 Q85.375,493.9063 85.375,494.25 Q85.375,494.5938 85.0313,495 Q84.5313,495.5781 83.7344,495.9063 Q82.6563,496.3594 81.3594,496.3594 Q79.8438,496.3594 78.6406,495.7344 Q77.6563,495.2344 76.9688,494.1719 Q76.2813,493.0938 76.2813,491.8125 L76.2813,490.6563 Q76.2813,489.3281 76.8906,488.1875 Q77.5156,487.0313 78.6094,486.4219 Q79.7031,485.7969 80.9375,485.7969 Q81.6719,485.7969 82.3125,485.9688 Q82.9688,486.125 83.5156,486.4844 Z " fill="#000000"/><text fill="#000000" font-family="sans-serif" font-size="14" lengthAdjust="spacing" textLength="107" x="101.25" y="496.3379">ProjetoController</text><line style="stroke:#181818;stroke-width:0.5;" x1="8" x2="269" y1="506.6094" y2="506.6094"/><line style="stroke:#181818;stroke-width:0.5;" x1="8" x2="269" y1="514.6094" y2="514.6094"/><ellipse cx="18" cy="528.9141" fill="#84BE84" rx="3" ry="3" style="stroke:#038048;stroke-width:1.0;"/><text fill="#000000" font-family="sans-serif" font-size="14" lengthAdjust="spacing" textLength="233" x="27" y="533.1426">ListarTodos(): IEnumerable&lt;Projeto&gt;</text><ellipse cx="18" cy="546.5234" fill="#84BE84" rx="3" ry="3" style="stroke:#038048;stroke-width:1.0;"/><text fill="#000000" font-family="sans-serif" font-size="14" lengthAdjust="spacing" textLength="174" x="27" y="550.752">BuscarPorId(id: int): Projeto</text><ellipse cx="18" cy="564.1328" fill="#84BE84" rx="3" ry="3" style="stroke:#038048;stroke-width:1.0;"/><text fill="#000000" font-family="sans-serif" font-size="14" lengthAdjust="spacing" textLength="172" x="27" y="568.3613">Criar(projeto: Projeto): void</text><ellipse cx="18" cy="581.7422" fill="#84BE84" rx="3" ry="3" style="stroke:#038048;stroke-width:1.0;"/><text fill="#000000" font-family="sans-serif" font-size="14" lengthAdjust="spacing" textLength="237" x="27" y="585.9707">Atualizar(id: int, projeto: Projeto): void</text><ellipse cx="18" cy="599.3516" fill="#84BE84" rx="3" ry="3" style="stroke:#038048;stroke-width:1.0;"/><text fill="#000000" font-family="sans-serif" font-size="14" lengthAdjust="spacing" textLength="119" x="27" y="603.5801">Excluir(id: int): void</text></g><!--MD5=[93f6c49603dee7b14761c66fdbbaf7a2]
class TarefaController--><g id="elem_TarefaController"><rect codeLine="72" fill="#F1F1F1" height="136.0469" id="TarefaController" rx="2.5" ry="2.5" style="stroke:#181818;stroke-width:0.5;" width="256" x="305.5" y="474.6094"/><ellipse cx="377.25" cy="490.6094" fill="#ADD1B2" rx="11" ry="11" style="stroke:#181818;stroke-width:1.0;"/><path d="M380.0156,486.4844 Q380.1719,486.2656 380.3594,486.1563 Q380.5469,486.0469 380.7656,486.0469 Q381.1406,486.0469 381.375,486.3125 Q381.6094,486.5625 381.6094,487.1719 L381.6094,488.625 Q381.6094,489.2344 381.375,489.5 Q381.1406,489.7656 380.7656,489.7656 Q380.4219,489.7656 380.2188,489.5625 Q380.0156,489.375 379.9063,488.8594 Q379.8594,488.5 379.6719,488.3125 Q379.3438,487.9375 378.7344,487.7188 Q378.125,487.5 377.5,487.5 Q376.7344,487.5 376.0938,487.8281 Q375.4688,488.1563 374.9688,488.9063 Q374.4844,489.6563 374.4844,490.6875 L374.4844,491.7813 Q374.4844,493.0156 375.375,493.8438 Q376.2656,494.6563 377.8594,494.6563 Q378.7969,494.6563 379.4531,494.4063 Q379.8438,494.25 380.2656,493.8125 Q380.5313,493.5469 380.6719,493.4688 Q380.8281,493.3906 381.0313,493.3906 Q381.3594,493.3906 381.6094,493.6563 Q381.875,493.9063 381.875,494.25 Q381.875,494.5938 381.5313,495 Q381.0313,495.5781 380.2344,495.9063 Q379.1563,496.3594 377.8594,496.3594 Q376.3438,496.3594 375.1406,495.7344 Q374.1563,495.2344 373.4688,494.1719 Q372.7813,493.0938 372.7813,491.8125 L372.7813,490.6563 Q372.7813,489.3281 373.3906,488.1875 Q374.0156,487.0313 375.1094,486.4219 Q376.2031,485.7969 377.4375,485.7969 Q378.1719,485.7969 378.8125,485.9688 Q379.4688,486.125 380.0156,486.4844 Z " fill="#000000"/><text fill="#000000" font-family="sans-serif" font-size="14" lengthAdjust="spacing" textLength="104" x="397.75" y="496.3379">TarefaController</text><line style="stroke:#181818;stroke-width:0.5;" x1="306.5" x2="560.5" y1="506.6094" y2="506.6094"/><line style="stroke:#181818;stroke-width:0.5;" x1="306.5" x2="560.5" y1="514.6094" y2="514.6094"/><ellipse cx="316.5" cy="528.9141" fill="#84BE84" rx="3" ry="3" style="stroke:#038048;stroke-width:1.0;"/><text fill="#000000" font-family="sans-serif" font-size="14" lengthAdjust="spacing" textLength="230" x="325.5" y="533.1426">ListarTodos(): IEnumerable&lt;Tarefa&gt;</text><ellipse cx="316.5" cy="546.5234" fill="#84BE84" rx="3" ry="3" style="stroke:#038048;stroke-width:1.0;"/><text fill="#000000" font-family="sans-serif" font-size="14" lengthAdjust="spacing" textLength="171" x="325.5" y="550.752">BuscarPorId(id: int): Tarefa</text><ellipse cx="316.5" cy="564.1328" fill="#84BE84" rx="3" ry="3" style="stroke:#038048;stroke-width:1.0;"/><text fill="#000000" font-family="sans-serif" font-size="14" lengthAdjust="spacing" textLength="162" x="325.5" y="568.3613">Criar(tarefa: Tarefa): void</text><ellipse cx="316.5" cy="581.7422" fill="#84BE84" rx="3" ry="3" style="stroke:#038048;stroke-width:1.0;"/><text fill="#000000" font-family="sans-serif" font-size="14" lengthAdjust="spacing" textLength="227" x="325.5" y="585.9707">Atualizar(id: int, tarefa: Tarefa): void</text><ellipse cx="316.5" cy="599.3516" fill="#84BE84" rx="3" ry="3" style="stroke:#038048;stroke-width:1.0;"/><text fill="#000000" font-family="sans-serif" font-size="14" lengthAdjust="spacing" textLength="119" x="325.5" y="603.5801">Excluir(id: int): void</text></g><!--MD5=[e58a8b6fbb3668d5b2deedc4b0b02a6f]
class StatusController--><g id="elem_StatusController"><rect codeLine="80" fill="#F1F1F1" height="65.6094" id="StatusController" rx="2.5" ry="2.5" style="stroke:#181818;stroke-width:0.5;" width="254" x="596.5" y="509.6094"/><ellipse cx="668.25" cy="525.6094" fill="#ADD1B2" rx="11" ry="11" style="stroke:#181818;stroke-width:1.0;"/><path d="M671.0156,521.4844 Q671.1719,521.2656 671.3594,521.1563 Q671.5469,521.0469 671.7656,521.0469 Q672.1406,521.0469 672.375,521.3125 Q672.6094,521.5625 672.6094,522.1719 L672.6094,523.625 Q672.6094,524.2344 672.375,524.5 Q672.1406,524.7656 671.7656,524.7656 Q671.4219,524.7656 671.2188,524.5625 Q671.0156,524.375 670.9063,523.8594 Q670.8594,523.5 670.6719,523.3125 Q670.3438,522.9375 669.7344,522.7188 Q669.125,522.5 668.5,522.5 Q667.7344,522.5 667.0938,522.8281 Q666.4688,523.1563 665.9688,523.9063 Q665.4844,524.6563 665.4844,525.6875 L665.4844,526.7813 Q665.4844,528.0156 666.375,528.8438 Q667.2656,529.6563 668.8594,529.6563 Q669.7969,529.6563 670.4531,529.4063 Q670.8438,529.25 671.2656,528.8125 Q671.5313,528.5469 671.6719,528.4688 Q671.8281,528.3906 672.0313,528.3906 Q672.3594,528.3906 672.6094,528.6563 Q672.875,528.9063 672.875,529.25 Q672.875,529.5938 672.5313,530 Q672.0313,530.5781 671.2344,530.9063 Q670.1563,531.3594 668.8594,531.3594 Q667.3438,531.3594 666.1406,530.7344 Q665.1563,530.2344 664.4688,529.1719 Q663.7813,528.0938 663.7813,526.8125 L663.7813,525.6563 Q663.7813,524.3281 664.3906,523.1875 Q665.0156,522.0313 666.1094,521.4219 Q667.2031,520.7969 668.4375,520.7969 Q669.1719,520.7969 669.8125,520.9688 Q670.4688,521.125 671.0156,521.4844 Z " fill="#000000"/><text fill="#000000" font-family="sans-serif" font-size="14" lengthAdjust="spacing" textLength="102" x="688.75" y="531.3379">StatusController</text><line style="stroke:#181818;stroke-width:0.5;" x1="597.5" x2="849.5" y1="541.6094" y2="541.6094"/><line style="stroke:#181818;stroke-width:0.5;" x1="597.5" x2="849.5" y1="549.6094" y2="549.6094"/><ellipse cx="607.5" cy="563.9141" fill="#84BE84" rx="3" ry="3" style="stroke:#038048;stroke-width:1.0;"/><text fill="#000000" font-family="sans-serif" font-size="14" lengthAdjust="spacing" textLength="228" x="616.5" y="568.1426">ListarTodos(): IEnumerable&lt;Status&gt;</text></g><!--MD5=[7d75efcc7d06b347edea0516f6aac1d8]
class BaseEntity--><g id="elem_BaseEntity"><rect codeLine="84" fill="#F1F1F1" height="118.4375" id="BaseEntity" rx="2.5" ry="2.5" style="stroke:#181818;stroke-width:0.5;" width="197" x="969" y="286.6094"/><ellipse cx="1029.75" cy="302.6094" fill="#ADD1B2" rx="11" ry="11" style="stroke:#181818;stroke-width:1.0;"/><path d="M1032.5156,298.4844 Q1032.6719,298.2656 1032.8594,298.1563 Q1033.0469,298.0469 1033.2656,298.0469 Q1033.6406,298.0469 1033.875,298.3125 Q1034.1094,298.5625 1034.1094,299.1719 L1034.1094,300.625 Q1034.1094,301.2344 1033.875,301.5 Q1033.6406,301.7656 1033.2656,301.7656 Q1032.9219,301.7656 1032.7188,301.5625 Q1032.5156,301.375 1032.4063,300.8594 Q1032.3594,300.5 1032.1719,300.3125 Q1031.8438,299.9375 1031.2344,299.7188 Q1030.625,299.5 1030,299.5 Q1029.2344,299.5 1028.5938,299.8281 Q1027.9688,300.1563 1027.4688,300.9063 Q1026.9844,301.6563 1026.9844,302.6875 L1026.9844,303.7813 Q1026.9844,305.0156 1027.875,305.8438 Q1028.7656,306.6563 1030.3594,306.6563 Q1031.2969,306.6563 1031.9531,306.4063 Q1032.3438,306.25 1032.7656,305.8125 Q1033.0313,305.5469 1033.1719,305.4688 Q1033.3281,305.3906 1033.5313,305.3906 Q1033.8594,305.3906 1034.1094,305.6563 Q1034.375,305.9063 1034.375,306.25 Q1034.375,306.5938 1034.0313,307 Q1033.5313,307.5781 1032.7344,307.9063 Q1031.6563,308.3594 1030.3594,308.3594 Q1028.8438,308.3594 1027.6406,307.7344 Q1026.6563,307.2344 1025.9688,306.1719 Q1025.2813,305.0938 1025.2813,303.8125 L1025.2813,302.6563 Q1025.2813,301.3281 1025.8906,300.1875 Q1026.5156,299.0313 1027.6094,298.4219 Q1028.7031,297.7969 1029.9375,297.7969 Q1030.6719,297.7969 1031.3125,297.9688 Q1031.9688,298.125 1032.5156,298.4844 Z " fill="#000000"/><text fill="#000000" font-family="sans-serif" font-size="14" lengthAdjust="spacing" textLength="67" x="1050.25" y="308.3379">BaseEntity</text><line style="stroke:#181818;stroke-width:0.5;" x1="970" x2="1165" y1="318.6094" y2="318.6094"/><ellipse cx="980" cy="332.9141" fill="none" rx="3" ry="3" style="stroke:#038048;stroke-width:1.0;"/><text fill="#000000" font-family="sans-serif" font-size="14" lengthAdjust="spacing" textLength="34" x="989" y="337.1426">Id: int</text><ellipse cx="980" cy="350.5234" fill="none" rx="3" ry="3" style="stroke:#038048;stroke-width:1.0;"/><text fill="#000000" font-family="sans-serif" font-size="14" lengthAdjust="spacing" textLength="148" x="989" y="354.752">DataCriacao: DateTime</text><ellipse cx="980" cy="368.1328" fill="none" rx="3" ry="3" style="stroke:#038048;stroke-width:1.0;"/><text fill="#000000" font-family="sans-serif" font-size="14" lengthAdjust="spacing" textLength="171" x="989" y="372.3613">DataAtualizacao: DateTime</text><ellipse cx="980" cy="385.7422" fill="none" rx="3" ry="3" style="stroke:#038048;stroke-width:1.0;"/><text fill="#000000" font-family="sans-serif" font-size="14" lengthAdjust="spacing" textLength="163" x="989" y="389.9707">DataExclusao: DateTime?</text><line style="stroke:#181818;stroke-width:0.5;" x1="970" x2="1165" y1="397.0469" y2="397.0469"/></g><!--MD5=[ba78e3650ea01c75d74d9d1de6cfef56]
class Auditoria--><g id="elem_Auditoria"><rect codeLine="91" fill="#F1F1F1" height="153.6563" id="Auditoria" rx="2.5" ry="2.5" style="stroke:#181818;stroke-width:0.5;" width="125" x="1005" y="45.6094"/><ellipse cx="1036.65" cy="61.6094" fill="#ADD1B2" rx="11" ry="11" style="stroke:#181818;stroke-width:1.0;"/><path d="M1039.4156,57.4844 Q1039.5719,57.2656 1039.7594,57.1563 Q1039.9469,57.0469 1040.1656,57.0469 Q1040.5406,57.0469 1040.775,57.3125 Q1041.0094,57.5625 1041.0094,58.1719 L1041.0094,59.625 Q1041.0094,60.2344 1040.775,60.5 Q1040.5406,60.7656 1040.1656,60.7656 Q1039.8219,60.7656 1039.6188,60.5625 Q1039.4156,60.375 1039.3063,59.8594 Q1039.2594,59.5 1039.0719,59.3125 Q1038.7438,58.9375 1038.1344,58.7188 Q1037.525,58.5 1036.9,58.5 Q1036.1344,58.5 1035.4938,58.8281 Q1034.8688,59.1563 1034.3688,59.9063 Q1033.8844,60.6563 1033.8844,61.6875 L1033.8844,62.7813 Q1033.8844,64.0156 1034.775,64.8438 Q1035.6656,65.6563 1037.2594,65.6563 Q1038.1969,65.6563 1038.8531,65.4063 Q1039.2438,65.25 1039.6656,64.8125 Q1039.9313,64.5469 1040.0719,64.4688 Q1040.2281,64.3906 1040.4313,64.3906 Q1040.7594,64.3906 1041.0094,64.6563 Q1041.275,64.9063 1041.275,65.25 Q1041.275,65.5938 1040.9313,66 Q1040.4313,66.5781 1039.6344,66.9063 Q1038.5563,67.3594 1037.2594,67.3594 Q1035.7438,67.3594 1034.5406,66.7344 Q1033.5563,66.2344 1032.8688,65.1719 Q1032.1813,64.0938 1032.1813,62.8125 L1032.1813,61.6563 Q1032.1813,60.3281 1032.7906,59.1875 Q1033.4156,58.0313 1034.5094,57.4219 Q1035.6031,56.7969 1036.8375,56.7969 Q1037.5719,56.7969 1038.2125,56.9688 Q1038.8688,57.125 1039.4156,57.4844 Z " fill="#000000"/><text fill="#000000" font-family="sans-serif" font-size="14" lengthAdjust="spacing" textLength="56" x="1054.35" y="67.3379">Auditoria</text><line style="stroke:#181818;stroke-width:0.5;" x1="1006" x2="1129" y1="77.6094" y2="77.6094"/><ellipse cx="1016" cy="91.9141" fill="none" rx="3" ry="3" style="stroke:#038048;stroke-width:1.0;"/><text fill="#000000" font-family="sans-serif" font-size="14" lengthAdjust="spacing" textLength="34" x="1025" y="96.1426">Id: int</text><text fill="#000000" font-family="sans-serif" font-size="14" lengthAdjust="spacing" textLength="75" x="1025" y="113.752">Acao: string</text><text fill="#000000" font-family="sans-serif" font-size="14" lengthAdjust="spacing" textLength="99" x="1025" y="131.3613">Entidade: string</text><text fill="#000000" font-family="sans-serif" font-size="14" lengthAdjust="spacing" textLength="90" x="1025" y="148.9707">EntidadeId: int</text><text fill="#000000" font-family="sans-serif" font-size="14" lengthAdjust="spacing" textLength="82" x="1025" y="166.5801">UsuarioId: int</text><text fill="#000000" font-family="sans-serif" font-size="14" lengthAdjust="spacing" textLength="99" x="1025" y="184.1895">Data: DateTime</text><line style="stroke:#181818;stroke-width:0.5;" x1="1006" x2="1129" y1="191.2656" y2="191.2656"/></g><!--MD5=[19dda568b4301d40d282f26919705d73]
link Auditoria to BaseEntity--><g id="link_Auditoria_BaseEntity"><path codeLine="100" d="M1067.5,199.6694 C1067.5,226.3494 1067.5,256.0194 1067.5,281.5294 " fill="none" id="Auditoria-to-BaseEntity" style="stroke:#181818;stroke-width:1.0;"/><polygon fill="#181818" points="1067.5,286.5694,1071.5,277.5694,1067.5,281.5694,1063.5,277.5694,1067.5,286.5694" style="stroke:#181818;stroke-width:1.0;"/><text fill="#000000" font-family="sans-serif" font-size="13" lengthAdjust="spacing" textLength="52" x="1068.5" y="244.1045">Herda de</text></g><!--MD5=[d90d0130d1e0db851d239ac48e1b5ce2]
@startuml EstimaDevClassDiagram

!define DOMAIN class
!define APPLICATION class
!define API class
!define PERSISTENCE class
!define ENUM enum

title EstimaDev - Diagrama de Classes

DOMAIN Usuario {
  +Id: int
  Nome: string
  Email: string
  ...
}

DOMAIN Cargo {
  +Id: int
  Nome: string
  ...
}

DOMAIN Projeto {
  +Id: int
  Nome: string
  ...
}

DOMAIN Tarefa {
  +Id: int
  Titulo: string
  ...
}

ENUM Status {
  Ativo
  Inativo
  ...
}

DOMAIN Historico {
  +Id: int
  Descricao: string
  Data: DateTime
  ...
}

API UsuarioController {
  +ListarTodos(): IEnumerable<Usuario>
  +BuscarPorId(id: int): Usuario
  +Criar(usuario: Usuario): void
  +Atualizar(id: int, usuario: Usuario): void
  +Excluir(id: int): void
}

API CargoController {
  +ListarTodos(): IEnumerable<Cargo>
  +BuscarPorId(id: int): Cargo
  +Criar(cargo: Cargo): void
  +Atualizar(id: int, cargo: Cargo): void
  +Excluir(id: int): void
}

API ProjetoController {
  +ListarTodos(): IEnumerable<Projeto>
  +BuscarPorId(id: int): Projeto
  +Criar(projeto: Projeto): void
  +Atualizar(id: int, projeto: Projeto): void
  +Excluir(id: int): void
}

API TarefaController {
  +ListarTodos(): IEnumerable<Tarefa>
  +BuscarPorId(id: int): Tarefa
  +Criar(tarefa: Tarefa): void
  +Atualizar(id: int, tarefa: Tarefa): void
  +Excluir(id: int): void
}

API StatusController {
  +ListarTodos(): IEnumerable<Status>
}

DOMAIN BaseEntity {
  +Id: int
  +DataCriacao: DateTime
  +DataAtualizacao: DateTime
  +DataExclusao: DateTime?
}

DOMAIN Auditoria {
  +Id: int
  Acao: string
  Entidade: string
  EntidadeId: int
  UsuarioId: int
  Data: DateTime
}

Auditoria - -> BaseEntity : Herda de

@enduml

@startuml EstimaDevClassDiagram


title EstimaDev - Diagrama de Classes

class Usuario {
  +Id: int
  Nome: string
  Email: string
  ...
}

class Cargo {
  +Id: int
  Nome: string
  ...
}

class Projeto {
  +Id: int
  Nome: string
  ...
}

class Tarefa {
  +Id: int
  Titulo: string
  ...
}

enum Status {
  Ativo
  Inativo
  ...
}

class Historico {
  +Id: int
  Descricao: string
  Data: DateTime
  ...
}

class UsuarioController {
  +ListarTodos(): IEnumerable<Usuario>
  +BuscarPorId(id: int): Usuario
  +Criar(usuario: Usuario): void
  +Atualizar(id: int, usuario: Usuario): void
  +Excluir(id: int): void
}

class CargoController {
  +ListarTodos(): IEnumerable<Cargo>
  +BuscarPorId(id: int): Cargo
  +Criar(cargo: Cargo): void
  +Atualizar(id: int, cargo: Cargo): void
  +Excluir(id: int): void
}

class ProjetoController {
  +ListarTodos(): IEnumerable<Projeto>
  +BuscarPorId(id: int): Projeto
  +Criar(projeto: Projeto): void
  +Atualizar(id: int, projeto: Projeto): void
  +Excluir(id: int): void
}

class TarefaController {
  +ListarTodos(): IEnumerable<Tarefa>
  +BuscarPorId(id: int): Tarefa
  +Criar(tarefa: Tarefa): void
  +Atualizar(id: int, tarefa: Tarefa): void
  +Excluir(id: int): void
}

class StatusController {
  +ListarTodos(): IEnumerable<Status>
}

class BaseEntity {
  +Id: int
  +DataCriacao: DateTime
  +DataAtualizacao: DateTime
  +DataExclusao: DateTime?
}

class Auditoria {
  +Id: int
  Acao: string
  Entidade: string
  EntidadeId: int
  UsuarioId: int
  Data: DateTime
}

Auditoria - -> BaseEntity : Herda de

@enduml

PlantUML version 1.2022.7(Mon Aug 22 14:01:30 BRT 2022)
(GPL source distribution)
Java Runtime: OpenJDK Runtime Environment
JVM: OpenJDK 64-Bit Server VM
Default Encoding: Cp1252
Language: pt
Country: BR
--></g></svg>